{
  "accessors": [
    {
      "bufferView": 2,
      "componentType": 5126,
      "count": 1373,
      "max": [
        1.8671770095825195,
        3.2566096782684326,
        0.25572067499160767
      ],
      "min": [
        -1.8671499490737915,
        -0.004186680074781179,
        -3.6341497898101807
      ],
      "type": "VEC3"
    },
    {
      "bufferView": 2,
      "byteOffset": 16476,
      "componentType": 5126,
      "count": 1373,
      "max": [
        1.0,
        1.0,
        1.0
      ],
      "min": [
        -1.0,
        -1.0,
        -0.9999824166297913
      ],
      "type": "VEC3"
    },
    {
      "bufferView": 1,
      "componentType": 5126,
      "count": 1373,
      "max": [
        0.9932420253753662,
        0.9933919906616211
      ],
      "min": [
        0.01805499941110611,
        0.008621999993920326
      ],
      "type": "VEC2"
    },
    {
      "bufferView": 0,
      "componentType": 5125,
      "count": 3930,
      "type": "SCALAR"
    },
    {
      "bufferView": 2,
      "byteOffset": 32952,
      "componentType": 5126,
      "count": 8,
      "max": [
        0.1534951776266098,
        2.6341214179992676,
        0.11420107632875443
      ],
      "min": [
        -0.15349382162094116,
        2.571491241455078,
        -0.0039719208143651485
      ],
      "type": "VEC3"
    },
    {
      "bufferView": 2,
      "byteOffset": 33048,
      "componentType": 5126,
      "count": 8,
      "max": [
        0.43619203567504883,
        0.47274431586265564,
        0.9118959903717041
      ],
      "min": [
        0.27467960119247437,
        0.2671841084957123,
        -0.9118814468383789
      ],
      "type": "VEC3"
    },
    {
      "bufferView": 1,
      "byteOffset": 10984,
      "componentType": 5126,
      "count": 8,
      "max": [
        1.2301199436187744,
        0.9334830045700073
      ],
      "min": [
        1.03193998336792,
        0.5603690147399902
      ],
      "type": "VEC2"
    },
    {
      "bufferView": 0,
      "byteOffset": 15720,
      "componentType": 5125,
      "count": 12,
      "type": "SCALAR"
    },
    {
      "bufferView": 2,
      "byteOffset": 33144,
      "componentType": 5126,
      "count": 8,
      "max": [
        0.1534951776266098,
        2.6341214179992676,
        0.11420107632875443
      ],
      "min": [
        -0.15349382162094116,
        2.571491241455078,
        -0.0039719208143651485
      ],
      "type": "VEC3"
    },
    {
      "bufferView": 2,
      "byteOffset": 33240,
      "componentType": 5126,
      "count": 8,
      "max": [
        0.43619203567504883,
        0.47274431586265564,
        0.9118959903717041
      ],
      "min": [
        0.27467960119247437,
        0.2671841084957123,
        -0.9118814468383789
      ],
      "type": "VEC3"
    },
    {
      "bufferView": 1,
      "byteOffset": 11048,
      "componentType": 5126,
      "count": 8,
      "max": [
        1.2301199436187744,
        0.9334830045700073
      ],
      "min": [
        1.03193998336792,
        0.5603690147399902
      ],
      "type": "VEC2"
    },
    {
      "bufferView": 0,
      "byteOffset": 15768,
      "componentType": 5125,
      "count": 12,
      "type": "SCALAR"
    },
    {
      "bufferView": 2,
      "byteOffset": 33336,
      "componentType": 5126,
      "count": 1373,
      "max": [
        1.8671770095825195,
        3.2566096782684326,
        0.25572067499160767
      ],
      "min": [
        -1.8671499490737915,
        -0.004186680074781179,
        -3.6341497898101807
      ],
      "type": "VEC3"
    },
    {
      "bufferView": 2,
      "byteOffset": 49812,
      "componentType": 5126,
      "count": 1373,
      "max": [
        1.0,
        1.0,
        1.0
      ],
      "min": [
        -1.0,
        -1.0,
        -0.9999824166297913
      ],
      "type": "VEC3"
    },
    {
      "bufferView": 1,
      "byteOffset": 11112,
      "componentType": 5126,
      "count": 1373,
      "max": [
        0.9932420253753662,
        0.9933919906616211
      ],
      "min": [
        0.01805499941110611,
        0.008621999993920326
      ],
      "type": "VEC2"
    },
    {
      "bufferView": 0,
      "byteOffset": 15816,
      "componentType": 5125,
      "count": 3930,
      "type": "SCALAR"
    }
  ],
  "asset": {
    "extras": {
      "author": "#3D $Resource$ (https://sketchfab.com/lopuh22721)",
      "license": "CC-BY-4.0 (http://creativecommons.org/licenses/by/4.0/)",
      "source": "https://sketchfab.com/3d-models/pokemon-black-and-white-zekrom-18fe558722ea410b84e37637fa892727",
      "title": "Pokemon Black and white Zekrom"
    },
    "generator": "Sketchfab-12.68.0",
    "version": "2.0"
  },
  "bufferViews": [
    {
      "buffer": 0,
      "byteLength": 31536,
      "name": "floatBufferViews",
      "target": 34963
    },
    {
      "buffer": 0,
      "byteLength": 22096,
      "byteOffset": 31536,
      "byteStride": 8,
      "name": "floatBufferViews",
      "target": 34962
    },
    {
      "buffer": 0,
      "byteLength": 66288,
      "byteOffset": 53632,
      "byteStride": 12,
      "name": "floatBufferViews",
      "target": 34962
    }
  ],
  "buffers": [
    {
      "byteLength": 119920,
      "uri": "scene.bin"
    }
  ],
  "images": [
    {
      "uri": "textures/body_baseColor.png"
    },
    {
      "uri": "textures/material_baseColor.png"
    }
  ],
  "materials": [
    {
      "doubleSided": true,
      "name": "body",
      "pbrMetallicRoughness": {
        "baseColorTexture": {
          "index": 0
        },
        "metallicFactor": 0.0
      }
    },
    {
      "doubleSided": true,
      "name": "material",
      "pbrMetallicRoughness": {
        "baseColorTexture": {
          "index": 1
        },
        "metallicFactor": 0.0
      }
    }
  ],
  "meshes": [
    {
      "name": "Object_0",
      "primitives": [
        {
          "attributes": {
            "NORMAL": 1,
            "POSITION": 0,
            "TEXCOORD_0": 2
          },
          "indices": 3,
          "material": 0,
          "mode": 4
        }
      ]
    },
    {
      "name": "Object_1",
      "primitives": [
        {
          "attributes": {
            "NORMAL": 5,
            "POSITION": 4,
            "TEXCOORD_0": 6
          },
          "indices": 7,
          "material": 1,
          "mode": 4
        }
      ]
    },
    {
      "name": "Object_2",
      "primitives": [
        {
          "attributes": {
            "NORMAL": 9,
            "POSITION": 8,
            "TEXCOORD_0": 10
          },
          "indices": 11,
          "material": 1,
          "mode": 4
        }
      ]
    },
    {
      "name": "Object_3",
      "primitives": [
        {
          "attributes": {
            "NORMAL": 13,
            "POSITION": 12,
            "TEXCOORD_0": 14
          },
          "indices": 15,
          "material": 0,
          "mode": 4
        }
      ]
    }
  ],
  "nodes": [
    {
      "children": [
        1
      ],
      "matrix": [
        1.0,
        0.0,
        0.0,
        0.0,
        0.0,
        2.220446049250313e-16,
        -1.0,
        0.0,
        0.0,
        1.0,
        2.220446049250313e-16,
        0.0,
        0.0,
        0.0,
        0.0,
        1.0
      ],
      "name": "Sketchfab_model"
    },
    {
      "children": [
        2
      ],
      "matrix": [
        1.0,
        0.0,
        0.0,
        0.0,
        0.0,
        -4.371139006309477e-08,
        0.999999999999999,
        0.0,
        0.0,
        -0.999999999999999,
        -4.371139006309477e-08,
        0.0,
        0.0,
        0.0,
        0.0,
        1.0
      ],
      "name": "Collada visual scene group"
    },
    {
      "children": [
        3,
        4,
        5,
        6
      ],
      "name": "Object_2"
    },
    {
      "mesh": 0,
      "name": "Object_3"
    },
    {
      "mesh": 1,
      "name": "Object_4"
    },
    {
      "mesh": 2,
      "name": "Object_5"
    },
    {
      "mesh": 3,
      "name": "Object_6"
    }
  ],
  "samplers": [
    {
      "magFilter": 9729,
      "minFilter": 9987,
      "wrapS": 10497,
      "wrapT": 10497
    }
  ],
  "scene": 0,
  "scenes": [
    {
      "name": "Sketchfab_Scene",
      "nodes": [
        0
      ]
    }
  ],
  "textures": [
    {
      "sampler": 0,
      "source": 0
    },
    {
      "sampler": 0,
      "source": 1
    }
  ]
}
